<?xml version="1.0" encoding="utf-8"?>
<!-- Generator: Adobe Illustrator 16.0.0, SVG Export Plug-In . SVG Version: 6.00 Build 0)  -->
<!DOCTYPE svg PUBLIC "-//W3C//DTD SVG 1.1//EN" "http://www.w3.org/Graphics/SVG/1.1/DTD/svg11.dtd">
<svg version="1.1" id="Layer_1" xmlns="http://www.w3.org/2000/svg" xmlns:xlink="http://www.w3.org/1999/xlink" x="0px" y="0px"
	 width="124px" height="34px" viewBox="0 0 124 34" enable-background="new 0 0 124 34" xml:space="preserve">
<path fill="#333333" d="M123.756,10.6c0-7.004-4.454-9.254-11.156-9.254h-9.297c-1.124,0-2.161,0.824-2.335,1.988l-3.545,27.027
	c-0.174,1.387,0.562,2.293,1.816,2.293h4.324c1.297,0,2.29-0.867,2.465-2.25l0.907-6.918h2.681
	C117.572,23.486,123.756,19.248,123.756,10.6z M111.26,16.049h-3.374l0.952-7.266h2.984c2.335,0,4.02,0.996,4.02,3.156
	C115.842,14.752,113.768,16.049,111.26,16.049z M15.616,1C5.367,1,1,8.139,1,21.021c0,8.301,3.417,11.977,10.422,11.977
	c9.253,0,12.15-5.445,12.885-11.459l0.433-3.283c0.13-1.17-0.519-2.035-1.858-2.035h-7.223c-1.643,0-2.248,0.996-2.421,2.336
	l-0.13,0.951c-0.172,1.342,0.605,2.031,1.859,2.031h1.471l-0.043,0.303c-0.347,2.465-1.471,3.502-3.979,3.502
	c-1.773,0-2.682-1.6-2.682-5.188c0-5.666,1.039-11.502,4.887-11.502c1.644,0,2.854,1.516,2.854,3.893
	c0,1.641,0.649,1.814,2.205,1.555l3.72-0.604c1.858-0.305,2.248-0.865,2.248-3.156C25.647,5.107,23.442,1,15.616,1z M68.152,25.131
	c-1.859,0.172-4.498,0.43-6.66,0.43c-7.783,0-11.762-0.951-13.966-3.5l-1.515-1.646c3.114-1.9,5.838-4.799,5.838-9.814
	c0-7.004-4.454-9.254-11.156-9.254h-8.864c-1.341,0-2.161,0.824-2.335,1.988l-3.546,27.07c-0.173,1.168,0.433,2.25,1.773,2.25h4.411
	c1.383,0,2.247-1.125,2.421-2.293l0.995-7.697h1.988l3.416,4.326c2.682,3.371,6.702,6.008,18.291,6.008
	c3.632,0,6.227-0.303,7.914-0.475c1.513-0.174,2.248-1.211,2.377-2.291l0.433-3.201C70.098,25.906,69.621,25,68.152,25.131z
	 M39.354,16.049h-2.94l0.951-7.266h2.552c2.291,0,4.021,0.996,4.021,3.156C43.937,14.752,41.861,16.049,39.354,16.049z
	 M121.415,28.939h-0.601c-0.312,0-0.429,0.184-0.462,0.412l-0.287,2.174c-0.024,0.203-0.009,0.279,0.219,0.279h0.319
	c0.211,0,0.262-0.076,0.288-0.287l0.084-0.625h0.101l0.187,0.641c0.059,0.195,0.109,0.271,0.361,0.271h0.328
	c0.186,0,0.186-0.111,0.136-0.287l-0.237-0.766c0.339-0.168,0.573-0.465,0.573-0.963C122.424,29.148,122.021,28.939,121.415,28.939z
	 M121.253,30.244h-0.193l0.076-0.58h0.159c0.211,0,0.329,0.084,0.329,0.244C121.624,30.135,121.455,30.244,121.253,30.244z
	 M121.497,27.885c-1.702,0-2.914,1.199-2.914,2.926c0,1.33,0.842,2.189,2.24,2.189c1.713,0,2.933-1.172,2.933-2.898
	C123.756,28.764,122.896,27.885,121.497,27.885z M120.916,32.303c-0.969,0-1.55-0.617-1.55-1.578c0-1.273,0.834-2.141,2.038-2.141
	c0.978,0,1.569,0.625,1.569,1.602C122.974,31.459,122.122,32.303,120.916,32.303z M71.783,1.346h-3.155
	c-1.384,0-2.249,0.865-2.379,2.035l-1.427,10.766c-0.301,2.336-1.038,3.547-2.508,3.547c-1.471,0-1.945-1.211-1.644-3.547
	l1.384-10.551c0.174-1.168-0.389-2.25-1.773-2.25h-3.156c-1.383,0-2.205,1.082-2.378,2.25l-1.341,10.117
	c-0.863,6.529,1.471,10.121,8.086,10.121c6.66,0,9.902-3.592,10.768-10.121l1.341-10.16C73.773,2.383,73.167,1.346,71.783,1.346z
	 M86.096,8.221c2.031,0,3.242,1.125,3.242,3.246c0,0.777,0.648,0.863,1.773,0.689l4.281-0.689c1.556-0.262,2.117-1.256,2.075-2.381
	C97.295,4.115,93.966,1,86.83,1c-8.476,0-12.41,5.838-12.41,10.896c0,9.859,12.757,7.566,12.757,11.242
	c0,1.168-0.52,2.682-3.374,2.682c-2.292,0-3.07-1.471-3.07-2.766c0-1.166-0.821-1.213-2.119-0.994l-3.977,0.648
	c-1.73,0.301-1.99,1.424-1.946,2.377c0.258,4.15,2.983,7.998,9.944,7.912c9.989-0.086,13.233-4.797,13.233-10.117
	c0-9.773-12.714-8.217-12.714-11.936C83.154,9.436,84.063,8.221,86.096,8.221z"/>
</svg>
