<?xml version="1.0" encoding="UTF-8" standalone="no"?><!DOCTYPE svg PUBLIC "-//W3C//DTD SVG 1.1//EN" "http://www.w3.org/Graphics/SVG/1.1/DTD/svg11.dtd"><svg width="100%" height="100%" viewBox="0 0 421 286" version="1.1" xmlns="http://www.w3.org/2000/svg" xmlns:xlink="http://www.w3.org/1999/xlink" xml:space="preserve" style="fill-rule:evenodd;clip-rule:evenodd;stroke-linejoin:round;stroke-miterlimit:1.41421;"><g><rect x="316.574" y="55.585" width="79.333" height="15.068" style="fill:#fff;fill-rule:nonzero;"/><path d="M382.098,75.902c-6.351,0 -11.497,-5.147 -11.497,-11.497c0,-0.066 0.005,-0.133 0.006,-0.2l5.383,-1.07l7.233,-1.439l9.417,-1.874c0.612,1.404 0.953,2.954 0.953,4.583c0,6.35 -5.147,11.497 -11.495,11.497m4.894,9.198c-0.359,0.859 -1.4,1.405 -2.333,1.22c-0.931,-0.184 -1.396,-1.033 -1.04,-1.893c0.356,-0.86 1.401,-1.407 2.331,-1.223c0.93,0.187 1.399,1.032 1.042,1.896m-7.097,6.38c-0.356,0.862 -1.4,1.411 -2.331,1.224c-0.931,-0.185 -1.398,-1.033 -1.04,-1.893c0.356,-0.861 1.401,-1.408 2.331,-1.224c0.931,0.185 1.395,1.033 1.04,1.893m-3.851,-6.887c-0.932,-0.186 -1.397,-1.033 -1.042,-1.895c0.356,-0.857 1.402,-1.404 2.333,-1.221c0.931,0.185 1.397,1.033 1.039,1.895c-0.356,0.859 -1.398,1.406 -2.33,1.221m-5.819,-3.764c-1.313,1.631 -3.767,3.623 -4.758,3.623l-0.034,0l-0.033,0c-0.643,0 -0.959,-0.472 -1.586,-1.41c-0.38,-0.568 -0.902,-1.347 -1.598,-2.212c-0.667,-0.828 -1.393,-1.609 -1.977,-2.237c-1.126,-1.212 -1.465,-1.577 -1.333,-2.185c0.011,-0.056 0.03,-0.109 0.05,-0.162c0.222,-0.72 1.224,-0.791 2.453,-0.879c1.077,-0.078 2.506,-0.12 4.022,-0.12c1.516,0 2.944,0.042 4.02,0.12c1.167,0.084 2.132,0.152 2.415,0.775c0.058,0.097 0.104,0.205 0.134,0.322c0.206,0.815 -0.335,2.579 -1.775,4.365m-32.729,-0.53c-8.466,0 -15.328,-6.866 -15.328,-15.329c0,-2.171 0.453,-4.238 1.27,-6.109l12.556,2.496l9.645,1.918l0.001,0.001l7.176,1.428c0.001,0.088 0.006,0.178 0.006,0.266c0,8.463 -6.863,15.329 -15.326,15.329m9.699,5.666c-1.164,0.231 -2.469,-0.454 -2.915,-1.53c-0.445,-1.073 0.137,-2.134 1.301,-2.365c1.165,-0.231 2.469,0.452 2.914,1.529c0.446,1.074 -0.137,2.133 -1.3,2.366m-1.9,10.138c-1.165,0.231 -2.471,-0.454 -2.915,-1.528c-0.445,-1.077 0.137,-2.135 1.301,-2.367c1.164,-0.232 2.469,0.452 2.915,1.528c0.445,1.075 -0.138,2.134 -1.301,2.367m-8.869,-7.98c-1.166,0.231 -2.469,-0.451 -2.915,-1.529c-0.445,-1.075 0.137,-2.134 1.301,-2.366c1.165,-0.23 2.469,0.455 2.914,1.53c0.445,1.073 -0.137,2.134 -1.3,2.365m54.458,-41.844l-0.138,-0.116l-0.072,-0.075c-0.303,-0.251 -0.95,-0.652 -1.747,-1.104c-2.095,4.655 -6.491,6.65 -6.491,6.65c-0.232,-3.744 -3.931,-8.491 -6.696,-11.543c-1.826,-0.417 -3.643,-0.768 -5.412,-1.064c0.591,10.586 -5.91,18.35 -5.91,18.35c-4.686,-8.374 -22.774,-15.403 -29.971,-17.928c-2.853,0.594 -5.495,1.289 -7.931,2.048c3.817,6.453 2.608,13.402 2.608,13.402c-3.407,-2.021 -9.296,-2.254 -14.839,-1.876c-4.552,0.31 -8.872,1.033 -11.392,1.511c-5.782,5.213 -8.956,11.098 -8.956,16.666c0,7.575 4.971,16.684 11.826,21.656c1.983,1.441 4.445,2.654 7.329,3.64c5.935,2.033 13.687,3.093 22.925,3.093c10.336,0 20.064,-4.176 26.69,-11.457l2.648,-2.909l2.162,3.314c4.505,6.92 10.884,11.052 17.064,11.052l0.001,0c0.961,0 1.925,-0.1 2.866,-0.294c10.981,-2.268 17.459,-16.982 14.448,-32.798c-1.579,-8.277 -5.593,-15.645 -11.012,-20.218" style="fill:#4c4c4c;fill-rule:nonzero;"/><path d="M378.854,89.587c-0.929,-0.183 -1.974,0.364 -2.331,1.225c-0.357,0.859 0.11,1.708 1.04,1.892c0.932,0.187 1.976,-0.362 2.331,-1.223c0.356,-0.861 -0.108,-1.708 -1.04,-1.894" style="fill-rule:nonzero;"/><path d="M343.681,92.208c-1.164,0.233 -1.746,1.29 -1.301,2.367c0.444,1.075 1.75,1.759 2.915,1.529c1.163,-0.234 1.746,-1.292 1.301,-2.367c-0.446,-1.077 -1.751,-1.76 -2.915,-1.529" style="fill-rule:nonzero;"/><path d="M363.418,91.481c-5.3,5.596 -12.692,9.783 -21.161,11.546c4.256,2.314 10.447,3.771 17.341,3.771c7.108,0 13.464,-1.548 17.729,-3.986c-5.303,-1.843 -10.191,-5.847 -13.909,-11.331" style="fill:#353535;fill-rule:nonzero;"/><path d="M339.976,62.15l1.681,0.336c0.592,0.397 0.98,1.073 0.98,1.839c0,1.227 -0.993,2.22 -2.221,2.22c-1.225,0 -2.219,-0.993 -2.219,-2.22c0,-1.075 0.764,-1.97 1.779,-2.175m0.44,7.502c2.944,0 5.326,-2.385 5.326,-5.327c0,-0.36 -0.035,-0.708 -0.103,-1.048l0.001,0l-0.001,-0.001l-9.645,-1.918c-0.571,0.848 -0.904,1.869 -0.904,2.967c0,2.942 2.386,5.327 5.326,5.327" style="fill-rule:nonzero;"/><path d="M371.866,76.143c-0.283,-0.623 -1.248,-0.692 -2.415,-0.776c-1.076,-0.078 -2.504,-0.12 -4.02,-0.12c-1.516,0 -2.945,0.042 -4.022,0.12c-1.229,0.088 -2.231,0.16 -2.453,0.879c-0.02,0.053 -0.039,0.107 -0.05,0.162c-0.133,0.608 0.207,0.973 1.333,2.185c0.584,0.628 1.31,1.409 1.977,2.237c0.696,0.865 1.218,1.644 1.598,2.212c0.627,0.939 0.943,1.41 1.586,1.41l0.067,0c0.991,0 3.445,-1.992 4.758,-3.623c1.44,-1.786 1.981,-3.55 1.775,-4.365c-0.03,-0.117 -0.076,-0.225 -0.134,-0.321" style="fill-rule:nonzero;"/><path d="M345.581,82.07c-1.164,0.231 -1.746,1.292 -1.301,2.365c0.446,1.076 1.751,1.761 2.916,1.53c1.163,-0.233 1.746,-1.292 1.299,-2.366c-0.445,-1.077 -1.749,-1.76 -2.914,-1.529" style="fill-rule:nonzero;"/><path d="M334.811,84.229c-1.164,0.231 -1.745,1.291 -1.301,2.365c0.447,1.078 1.749,1.761 2.916,1.529c1.163,-0.231 1.745,-1.292 1.299,-2.365c-0.444,-1.075 -1.749,-1.76 -2.914,-1.529" style="fill-rule:nonzero;"/><path d="M378.374,83.372c0.357,-0.862 -0.109,-1.71 -1.039,-1.894c-0.931,-0.184 -1.978,0.363 -2.333,1.22c-0.356,0.863 0.11,1.709 1.042,1.895c0.931,0.186 1.973,-0.361 2.33,-1.221" style="fill-rule:nonzero;"/><path d="M321.432,43.265c-11.835,4.605 -17.439,10.259 -17.511,10.333l-0.12,0.132l-0.136,0.116c-6.276,5.378 -9.73,11.541 -9.73,17.352c0,7.577 4.973,16.686 11.827,21.658c1.983,1.438 4.446,2.654 7.33,3.639c-3.085,-6.28 -4.816,-13.248 -4.816,-20.595c0,-12.476 4.966,-23.875 13.156,-32.635" style="fill:#353535;fill-rule:nonzero;"/><path d="M387.448,99.295c-0.941,0.194 -1.905,0.294 -2.866,0.294l-0.001,0c-6.18,0 -12.56,-4.132 -17.064,-11.052l-2.163,-3.315l-2.647,2.91c-6.626,7.281 -16.354,11.457 -26.69,11.457c-9.238,0 -16.99,-1.06 -22.925,-3.093c-2.884,-0.986 -5.346,-2.199 -7.329,-3.64c-6.855,-4.972 -11.826,-14.081 -11.826,-21.656c0,-5.568 3.174,-11.453 8.956,-16.666c2.52,-0.478 6.84,-1.201 11.392,-1.51c5.543,-0.379 11.432,-0.146 14.839,1.876c0,0 1.209,-6.95 -2.608,-13.403c2.436,-0.758 5.078,-1.454 7.931,-2.048c7.197,2.525 25.284,9.554 29.971,17.928c0,0 6.501,-7.763 5.91,-18.349c1.769,0.296 3.586,0.646 5.412,1.063c2.765,3.053 6.464,7.799 6.696,11.543c0,0 4.396,-1.995 6.491,-6.649c0.797,0.451 1.444,0.852 1.747,1.103l0.072,0.075l0.138,0.116c5.419,4.573 9.433,11.941 11.012,20.218c3.011,15.817 -3.467,30.531 -14.448,32.798m-27.849,7.503c-6.895,0 -13.085,-1.457 -17.342,-3.772c8.47,-1.762 15.861,-5.949 21.161,-11.546c3.718,5.485 8.606,9.489 13.909,11.331c-4.264,2.439 -10.621,3.987 -17.728,3.987m45.424,-39.793c-1.391,-7.016 -4.381,-13.161 -8.307,-17.851l-14.164,-48.654l-10.735,36.876c-11.309,-2.063 -21.306,-2.02 -21.306,-2.02c-12.528,0.261 -22.665,2.337 -30.589,4.959l-52.235,0l19.554,26.165c-0.622,1.912 -0.958,3.869 -0.958,5.857c0,8.517 5.536,18.613 13.689,24.299c8.464,5.9 22.064,7.277 32.957,7.308c4.955,4.028 14.026,6.726 24.398,6.726c10.466,0 19.604,-2.748 24.53,-6.836c1.852,0.195 3.729,0.125 5.599,-0.245c13.19,-2.617 21.055,-18.996 17.567,-36.584" style="fill-rule:nonzero;"/><path d="M378.978,62.54l1.259,-0.249c0.761,0.151 1.334,0.823 1.334,1.631c0,0.92 -0.746,1.667 -1.664,1.667c-0.92,0 -1.665,-0.747 -1.665,-1.667c0,-0.575 0.291,-1.083 0.736,-1.382m0.929,5.376c2.205,0 3.995,-1.789 3.995,-3.994c0,-0.825 -0.25,-1.59 -0.679,-2.226l-7.233,1.439l1.126,-0.225l-1.126,0.225c-0.051,0.254 -0.078,0.517 -0.078,0.787c0,2.205 1.789,3.994 3.995,3.994" style="fill-rule:nonzero;"/><path d="M385.95,83.204c-0.93,-0.183 -1.975,0.364 -2.331,1.223c-0.356,0.86 0.109,1.709 1.04,1.893c0.933,0.185 1.974,-0.361 2.333,-1.22c0.357,-0.864 -0.112,-1.709 -1.042,-1.896" style="fill-rule:nonzero;"/><path d="M345.742,64.324c0,-0.359 -0.035,-0.708 -0.102,-1.048l-0.001,0c0.068,0.34 0.103,0.689 0.103,1.048" style="fill:#ffe900;fill-rule:nonzero;"/><path d="M345.64,63.276c0.067,0.34 0.102,0.689 0.102,1.048c0,2.942 -2.383,5.327 -5.326,5.327c-2.94,0 -5.326,-2.385 -5.326,-5.327c0,-1.098 0.333,-2.118 0.904,-2.967l-12.556,-2.496c-0.817,1.871 -1.27,3.938 -1.27,6.109c0,8.463 6.862,15.329 15.328,15.329c8.463,0 15.326,-6.866 15.326,-15.329c0,-0.088 -0.005,-0.178 -0.005,-0.266l-7.177,-1.428Z" style="fill:#ffe900;fill-rule:nonzero;"/><path d="M375.99,63.135l1.126,-0.225l-1.126,0.225Z" style="fill:#ffe900;fill-rule:nonzero;"/><path d="M383.223,61.696c0.428,0.636 0.678,1.401 0.678,2.226c0,2.205 -1.79,3.994 -3.994,3.994c-2.206,0 -3.995,-1.789 -3.995,-3.994c0,-0.271 0.027,-0.533 0.078,-0.787l-5.383,1.07c-0.001,0.067 -0.006,0.134 -0.006,0.2c0,6.35 5.146,11.497 11.497,11.497c6.348,0 11.495,-5.147 11.495,-11.497c0,-1.629 -0.341,-3.178 -0.953,-4.583l-9.417,1.874Z" style="fill:#ffe900;fill-rule:nonzero;"/><path d="M153.852,236.454c0.322,-0.031 0.537,-0.241 0.632,-0.314c0.11,0.069 0.278,0.603 0.338,0.802c-0.261,0.294 -0.681,0.546 -1.16,0.592c-0.915,0.088 -1.421,-0.476 -1.415,-1.288c0.011,-1.126 0.797,-2.042 1.994,-2.158c0.521,-0.049 0.898,0.078 0.975,0.23c-0.023,0.12 -0.322,0.848 -0.488,0.991c-0.142,-0.075 -0.376,-0.177 -0.589,-0.157c-0.379,0.036 -0.695,0.397 -0.7,0.862c-0.004,0.44 0.287,0.451 0.413,0.44m-0.425,1.881c1.235,-0.12 2.606,-1.18 2.624,-3.163c0.009,-1.173 -0.62,-1.953 -1.817,-1.837c-2.009,0.192 -2.671,1.931 -2.683,3.245c-0.01,1.236 0.701,1.867 1.876,1.755m0.844,-5.634c1.417,-0.134 2.441,0.6 2.425,2.355c-0.016,1.897 -1.203,3.656 -3.322,3.857c-1.544,0.151 -2.472,-0.776 -2.459,-2.24c0.021,-2.416 1.559,-3.799 3.356,-3.972" style="fill-rule:nonzero;"/><path d="M161.679,236.362c0.118,-0.012 0.189,-0.041 0.275,-0.091c0.017,-0.062 0.043,-0.334 0.043,-0.334c0,0 -0.37,0.051 -0.44,0.058c-0.048,-0.058 0.144,-1.208 0.222,-1.311c0.205,-0.074 2.121,-0.322 2.167,-0.27c0.055,0.034 -0.481,2.877 -0.488,2.83c-0.421,0.356 -1.406,0.727 -2.037,0.786c-1.78,0.172 -2.426,-0.798 -2.413,-2.284c0.015,-1.811 1.241,-3.384 3.298,-3.581c0.913,-0.088 1.493,0.187 1.647,0.432c-0.047,0.209 -0.741,1.36 -0.965,1.57c-0.227,-0.135 -0.541,-0.254 -0.887,-0.221c-0.59,0.058 -1.116,0.657 -1.123,1.555c-0.006,0.717 0.361,0.894 0.701,0.861" style="fill-rule:nonzero;"/><path d="M166.949,234.22c0.3,-0.03 0.491,-0.308 0.493,-0.63c0.002,-0.189 -0.114,-0.313 -0.391,-0.285c-0.054,0.006 -0.109,0.019 -0.14,0.03c-0.06,0.367 -0.099,0.544 -0.166,0.889c0.038,0.003 0.142,0.002 0.204,-0.004m-2.635,3.367c0.004,-0.283 0.984,-5.317 1.016,-5.414c0.008,-0.048 1.105,-0.349 1.853,-0.422c1.449,-0.139 2.177,0.396 2.167,1.521c-0.006,0.718 -0.319,1.362 -1.046,1.808c0.348,0.675 0.624,1.544 0.592,1.579c-0.126,0.137 -1.329,0.757 -1.644,0.788c-0.023,0.001 -0.354,-1.037 -0.725,-1.851l-0.046,0.005c-0.157,0.809 -0.305,1.579 -0.371,1.782c-0.1,0.041 -1.796,0.273 -1.796,0.204" style="fill-rule:nonzero;"/><path d="M172.543,231.355c-0.184,0.897 -0.649,2.948 -0.654,3.413c-0.002,0.251 0.076,0.361 0.289,0.342c0.316,-0.031 0.373,-0.393 0.438,-0.672c0.254,-1.078 0.441,-2.733 0.523,-3.213c0.105,-0.079 2.035,-0.345 2.035,-0.265c-0.071,0.731 -0.428,2.928 -0.542,3.496c-0.281,1.419 -0.918,2.352 -2.613,2.516c-1.236,0.119 -2.12,-0.489 -2.109,-1.747c0.006,-0.638 0.487,-2.65 0.766,-3.676c0.046,-0.185 1.363,-0.265 1.867,-0.194" style="fill-rule:nonzero;"/><path d="M175.25,236c-0.006,-0.155 0.611,-1.576 0.706,-1.554c0.133,0.018 0.751,0.423 1.248,0.376c0.149,-0.015 0.252,-0.112 0.253,-0.235c0.001,-0.135 -0.068,-0.238 -0.5,-0.347c-0.738,-0.172 -1.206,-0.584 -1.199,-1.394c0.01,-1.19 0.891,-2.06 2.222,-2.189c0.992,-0.095 1.674,0.146 1.908,0.351c0.095,0.086 -0.627,1.525 -0.713,1.557c0.009,0.038 -0.665,-0.361 -1.304,-0.3c-0.142,0.014 -0.214,0.083 -0.215,0.186c-0.001,0.142 0.125,0.2 0.563,0.33c0.613,0.186 1.296,0.529 1.288,1.418c-0.007,0.882 -0.655,2.006 -2.286,2.164c-0.953,0.091 -1.689,-0.201 -1.971,-0.363" style="fill-rule:nonzero;"/><path d="M182.709,232.878c0.284,-0.027 0.512,-0.277 0.516,-0.647c0.002,-0.245 -0.122,-0.366 -0.365,-0.344c-0.016,0.002 -0.097,0.011 -0.128,0.028c-0.048,0.235 -0.132,0.713 -0.188,0.963c0.031,0.004 0.118,0.004 0.165,0m-2.681,3.199c0.002,-0.259 0.969,-5.418 1.017,-5.468c0.127,-0.139 1.222,-0.307 1.701,-0.353c1.49,-0.144 2.233,0.421 2.222,1.643c-0.012,1.344 -0.825,2.366 -2.461,2.525l-0.205,0.019c-0.158,0.816 -0.24,1.344 -0.305,1.413c-0.039,0.065 -1.969,0.291 -1.969,0.221" style="fill-rule:nonzero;"/><path d="M185.504,235.65c-0.354,0.02 -0.683,-0.262 -0.678,-0.759c0.006,-0.701 0.459,-1.199 1.168,-1.269c0.48,-0.046 0.826,0.181 0.821,0.73c-0.008,0.742 -0.493,1.251 -1.311,1.298" style="fill-rule:nonzero;"/><path d="M190.479,231.132c-0.44,0.042 -0.854,0.703 -0.863,1.584c-0.004,0.513 0.174,0.834 0.521,0.8c0.472,-0.046 0.856,-0.743 0.864,-1.657c0.005,-0.574 -0.214,-0.757 -0.522,-0.727m2.522,0.511c-0.014,1.669 -1.187,3.426 -2.974,3.598c-1.576,0.151 -2.388,-0.652 -2.373,-2.241c0.014,-1.692 1.218,-3.404 2.951,-3.571c1.591,-0.153 2.409,0.665 2.396,2.214" style="fill-rule:nonzero;"/><path d="M195.98,231.429c0.299,-0.029 0.49,-0.308 0.493,-0.629c0.003,-0.19 -0.115,-0.312 -0.391,-0.285c-0.055,0.006 -0.11,0.018 -0.141,0.028c-0.059,0.369 -0.098,0.544 -0.166,0.889c0.04,0.004 0.142,0.003 0.205,-0.003m-2.635,3.367c0.003,-0.283 0.983,-5.315 1.016,-5.413c0.008,-0.048 1.106,-0.351 1.854,-0.423c1.447,-0.139 2.175,0.396 2.166,1.522c-0.005,0.716 -0.32,1.36 -1.046,1.807c0.348,0.675 0.624,1.545 0.592,1.579c-0.126,0.138 -1.329,0.757 -1.645,0.787c-0.022,0.002 -0.353,-1.036 -0.723,-1.849l-0.048,0.004c-0.156,0.809 -0.304,1.579 -0.37,1.781c-0.101,0.043 -1.796,0.276 -1.796,0.205" style="fill-rule:nonzero;"/><path d="M201.546,232.529c0.118,-0.011 0.189,-0.041 0.276,-0.091c0.017,-0.062 0.044,-0.334 0.044,-0.334c0,0 -0.371,0.053 -0.442,0.059c-0.048,-0.059 0.144,-1.209 0.224,-1.31c0.205,-0.077 2.119,-0.323 2.165,-0.272c0.055,0.034 -0.481,2.877 -0.489,2.83c-0.42,0.357 -1.405,0.727 -2.035,0.787c-1.781,0.171 -2.426,-0.798 -2.414,-2.285c0.016,-1.811 1.241,-3.384 3.297,-3.581c0.915,-0.088 1.496,0.188 1.649,0.431c-0.048,0.21 -0.742,1.362 -0.965,1.572c-0.227,-0.136 -0.542,-0.255 -0.888,-0.222c-0.59,0.058 -1.116,0.658 -1.123,1.556c-0.006,0.716 0.362,0.893 0.701,0.86" style="fill-rule:nonzero;"/><path d="M209.184,230.758c0.411,-1.173 1.049,-3.003 1.176,-3.11c0.111,-0.098 1.75,-0.263 1.876,-0.22c0.077,0.016 -0.244,5.22 -0.324,5.45c-0.143,0.17 -1.837,0.388 -1.836,0.326c0.001,-0.221 0.331,-1.952 0.401,-2.713l-0.039,0.004c-0.372,1.058 -0.784,2.308 -0.978,2.743c-0.157,0.056 -1.41,0.184 -1.449,0.116c-0.038,-0.028 -0.007,-1.721 0.016,-2.667l-0.031,0.003c-0.293,1.034 -0.563,2.35 -0.694,2.787c-0.378,0.061 -1.723,0.017 -1.698,-0.056c0.008,-0.29 1.506,-4.996 1.707,-5.473c0.081,-0.174 1.577,-0.308 1.679,-0.2c0.053,0.058 0.109,1.829 0.139,3.014l0.055,-0.004Z" style="fill-rule:nonzero;"/><path d="M216.095,230.092c0.41,-1.171 1.048,-3.002 1.174,-3.109c0.112,-0.097 1.752,-0.262 1.877,-0.219c0.079,0.016 -0.244,5.22 -0.324,5.449c-0.143,0.171 -1.837,0.389 -1.836,0.326c0.001,-0.222 0.33,-1.95 0.401,-2.712l-0.039,0.002c-0.371,1.06 -0.784,2.31 -0.977,2.745c-0.156,0.055 -1.409,0.182 -1.449,0.115c-0.038,-0.026 -0.009,-1.719 0.016,-2.666l-0.033,0.003c-0.29,1.035 -0.562,2.35 -0.692,2.787c-0.378,0.059 -1.725,0.016 -1.697,-0.057c0.008,-0.291 1.505,-4.996 1.707,-5.471c0.079,-0.174 1.576,-0.309 1.676,-0.201c0.055,0.057 0.112,1.828 0.14,3.014l0.056,-0.006Z" style="fill-rule:nonzero;"/><path d="M222.573,226.489c0.064,0.034 -0.919,5.358 -1.031,5.558c-0.056,0.186 -1.884,0.283 -1.884,0.22c0.004,-0.3 0.912,-5.136 1.119,-5.526c0.12,-0.257 1.742,-0.294 1.796,-0.252" style="fill-rule:nonzero;"/><path d="M225.234,229.434c0.209,-0.649 0.872,-2.757 1.172,-3.384c0.023,-0.05 2.007,-0.169 2.029,-0.053c-0.226,0.682 -2.346,5.581 -2.417,5.634c-0.072,0.056 -2.043,0.291 -2.206,0.268c-0.024,-0.005 -0.482,-4.318 -0.464,-5.405c0.102,-0.144 1.883,-0.417 1.916,-0.357c0.069,0.118 -0.056,2.655 -0.07,3.301l0.04,-0.004Z" style="fill-rule:nonzero;"/><path d="M368.598,221.083c-3.023,0 -4.835,-1.918 -4.835,-4.913c0,-3.965 2.599,-6.671 6.355,-6.671c3.047,0 4.884,1.944 4.884,4.992c0,3.965 -2.65,6.592 -6.404,6.592m1.809,-13.763c-5.305,0 -9.088,3.731 -9.088,9.113c0,4.15 2.628,6.83 6.989,6.83c5.331,0 9.138,-3.651 9.138,-9.035c0,-4.176 -2.679,-6.908 -7.039,-6.908" style="fill-rule:nonzero;"/><path d="M369.646,214.675l-0.605,0l0.237,-1.815l0.501,0c0.654,0 1.023,0.265 1.023,0.763c0,0.709 -0.527,1.052 -1.156,1.052m0.5,-4.073l-1.866,0c-0.973,0 -1.34,0.579 -1.443,1.287l-0.893,6.777c-0.081,0.63 -0.029,0.868 0.682,0.868l0.997,0c0.657,0 0.814,-0.238 0.893,-0.894l0.264,-1.945l0.315,0l0.575,1.997c0.184,0.604 0.343,0.842 1.132,0.842l1.022,0c0.579,0 0.579,-0.343 0.421,-0.894l-0.734,-2.389c1.05,-0.525 1.785,-1.445 1.785,-2.994c0,-1.997 -1.261,-2.655 -3.15,-2.655" style="fill-rule:nonzero;"/><path d="M77.761,223.283c-9.244,1.239 -15.376,-2.826 -13.229,-12.11c1.106,-4.775 5.741,-11.566 11.823,-12.381c0.972,-0.13 2.127,-0.028 3.465,0.309l0.062,-0.262c4.008,2.029 8.99,2.907 15.07,2.093c16.784,-2.249 36.941,-17.032 56.258,-37.355c-23.915,37.136 -54.72,57.197 -73.449,59.706m132.612,-172.77c4.136,-0.554 12.952,-1.991 11.785,3.048c-0.981,4.244 -6.213,6.487 -12.781,7.367c-4.865,0.652 -10.211,-0.688 -16.225,-3.225c6.272,-3.668 12.297,-6.275 17.221,-7.19m-30.827,83.303c8.953,-7.111 19.793,-15.244 22.911,-23.631l0.185,-0.795c1.657,-7.164 -1.923,-10.029 -7.274,-9.311c-7.785,1.042 -19.722,9.84 -25.957,25.583l-5.494,11.534c-10.79,11.984 -24.186,22.005 -31.727,23.016c-9.731,1.303 -12.877,-4.444 -10.362,-15.324c4.359,-18.833 19.609,-40.929 36.972,-58.934c15.133,2.856 29.17,6.373 44.98,4.259c17.755,-2.377 38.638,-16.23 43.304,-36.392c4.912,-21.222 -13.733,-28.237 -33.923,-25.534c-12.648,1.695 -28.593,8.457 -45.274,18.404c-14.273,-5.545 -31.83,-10.134 -54.696,-7.073c-23.107,3.095 -57.197,23.084 -64.563,54.919c-4.482,19.365 7.473,27.791 23.04,25.708c5.841,-0.783 11.012,-2.762 14.79,-5.84c-3.77,-1.036 -4.856,-4.489 -3.934,-8.469c2.456,-10.612 17.617,-21.126 31.483,-22.983c2.187,-0.294 4.314,-0.32 6.505,-0.612c-24.917,23.131 -45.282,50.022 -50.805,73.897c-3.438,14.859 -2.679,27.866 2.774,35.874c-5.344,-2.365 -11.546,-2.051 -18.115,-1.172c-25.783,3.452 -47.36,27.423 -52.393,49.177c-7.981,34.489 17.824,48.254 44.824,44.641c57.651,-7.72 115.619,-75.896 131.334,-143.81c0.554,-2.388 1.104,-4.773 1.415,-7.132m93.748,107.747l-1.598,0.2c-7.576,0.962 -8.774,-1.68 -8.774,-3.875c0,-2.194 2.195,-3.669 3.59,-3.844c4.388,-0.556 9.574,1.38 15.758,4.587c-3.79,1.677 -6.783,2.653 -8.976,2.932m97.938,-73.431c2.194,-7.457 1.996,-5.838 4.189,-11.302c3.79,-9.454 10.372,-22.058 13.763,-22.486c8.18,-1.033 -9.175,37.463 -16.356,38.373c-1.196,0.152 -2.393,-2.089 -1.596,-4.585m16.954,34.357c-4.788,0.605 -8.776,2.108 -11.371,4.43c3.393,0.769 4.989,3.359 4.989,6.352c0,7.978 -10.77,15.924 -22.142,17.362c-9.774,1.235 -18.15,0.701 -25.732,-0.734c11.172,-15.176 18.351,-31.044 25.934,-48.959c-0.801,8.08 1.393,18.374 11.17,17.138c23.136,-2.929 49.466,-45.356 49.466,-71.089c0,-8.775 -5.783,-15.824 -14.562,-14.713c-7.779,0.985 -15.16,8.103 -21.143,17.438l-1.595,0.201l7.38,-13.501l-24.934,3.156c-4.785,11.377 -15.558,34.88 -26.929,58.861l-0.995,2.518l-0.6,1.072c-8.376,17.217 -18.949,30.126 -29.321,39.416c-13.364,-5.091 -26.927,-9.758 -45.478,-7.409c-16.157,2.044 -31.914,13.612 -31.914,29.77c0,20.346 23.936,26.891 42.487,24.545l1.994,-0.254c13.562,-1.715 25.332,-6.797 35.903,-14.517c15.758,6.983 34.708,12.563 58.045,9.608c18.95,-2.397 43.883,-17.519 43.883,-41.456c0,-14.561 -11.769,-20.85 -24.535,-19.235m-141.62,-10.004c-1.996,11.823 0.598,21.466 12.365,19.978c9.013,-1.141 16.195,-8.512 21.667,-17.121c3.413,8.89 14.087,12.995 23.814,11.764c21.143,-2.676 33.51,-22.591 33.51,-38.947c0,-10.373 -3.589,-19.095 -3.589,-27.472c0,-7.78 3.389,-14.191 10.37,-16.072c-3.989,-3.486 -7.778,-4.8 -13.162,-4.12c-16.559,2.096 -23.937,16.394 -23.937,27.563c0,8.379 3.989,15.053 3.989,22.634c0,4.387 -2.196,9.852 -7.581,10.534c-3.191,0.404 -5.784,-1.263 -5.784,-4.655c0,-1.596 1.197,-3.742 3.592,-3.644c-1.198,-2.841 -4.19,-3.66 -7.183,-3.281c-8.404,1.063 -13.734,8.81 -14.91,16.353c-0.347,0.1 -0.696,0.184 -1.047,0.229c-2.195,0.277 -3.391,-1.368 -2.793,-4.037c0.4,-3.041 2.793,-8.131 5.783,-14.892l17.355,-39.299l-27.128,3.434l-14.76,32.586l-2.99,6.362c-3.592,7.835 -8.178,15.596 -10.773,16.123c-4.389,1.156 -3.791,-3.311 1.597,-15.162l17.351,-38.697l-25.73,3.254c-9.776,18.591 -27.327,53.526 -27.327,68.085c0,8.78 5.387,13.881 13.365,12.873c9.375,-1.187 17.753,-12.02 23.936,-24.373m8.976,-74.257c4.589,-0.58 9.575,0.785 9.377,4.399c12.765,-6.402 16.354,-14.037 16.354,-22.415c0,-7.38 -7.38,-13.627 -18.75,-12.189c-21.94,2.779 -38.095,30.354 -50.264,60.218l-2.593,0.328l6.781,-15.818l-21.142,2.676c-9.974,23.801 -28.125,62.6 -40.693,85.335c4.588,-2.376 10.772,-4.954 17.953,-6.261c6.183,-1.183 14.958,-0.895 14.958,-0.895l13.764,-31.862c8.179,-18.988 31.916,-60.686 54.255,-63.516" style="fill-rule:nonzero;"/></g></svg>