<?xml version="1.0" encoding="utf-8"?>
<!-- Generator: Adobe Illustrator 16.0.0, SVG Export Plug-In . SVG Version: 6.00 Build 0)  -->
<!DOCTYPE svg PUBLIC "-//W3C//DTD SVG 1.1//EN" "http://www.w3.org/Graphics/SVG/1.1/DTD/svg11.dtd">
<svg version="1.1" id="Layer_1" xmlns="http://www.w3.org/2000/svg" xmlns:xlink="http://www.w3.org/1999/xlink" x="0px" y="0px"
	 width="94px" height="26px" viewBox="0 0 94 26" enable-background="new 0 0 94 26" xml:space="preserve">
<path fill="#FFFFFF" d="M93.066,8.2c0-5.253-3.341-6.94-8.367-6.94h-6.973c-0.843,0-1.621,0.617-1.751,1.491l-2.659,20.271
	c-0.13,1.037,0.422,1.718,1.362,1.718h3.243c0.973,0,1.719-0.649,1.849-1.687l0.681-5.188h2.011
	C88.43,17.864,93.066,14.686,93.066,8.2z M83.695,12.286h-2.531l0.714-5.449h2.238c1.751,0,3.015,0.747,3.015,2.367
	C87.131,11.313,85.576,12.286,83.695,12.286z M11.962,1C4.276,1,1,6.352,1,16.016c0,6.227,2.562,8.982,7.816,8.982
	c6.94,0,9.113-4.086,9.664-8.594l0.325-2.465c0.097-0.875-0.389-1.524-1.394-1.524h-5.417c-1.232,0-1.686,0.746-1.816,1.751
	l-0.097,0.713c-0.129,1.006,0.454,1.524,1.395,1.524h1.103l-0.033,0.227c-0.259,1.85-1.103,2.627-2.983,2.627
	c-1.33,0-2.011-1.199-2.011-3.891c0-4.25,0.779-8.627,3.665-8.627c1.232,0,2.14,1.136,2.14,2.919c0,1.231,0.487,1.362,1.654,1.167
	l2.79-0.454c1.394-0.227,1.686-0.648,1.686-2.367C19.485,4.081,17.832,1,11.962,1z M51.364,19.096
	c-1.395,0.131-3.374,0.324-4.995,0.324c-5.837,0-8.821-0.713-10.475-2.626l-1.135-1.233c2.335-1.426,4.378-3.6,4.378-7.361
	c0-5.253-3.34-6.94-8.367-6.94h-6.648c-1.005,0-1.622,0.617-1.752,1.491l-2.659,20.302c-0.129,0.876,0.325,1.687,1.33,1.687h3.308
	c1.038,0,1.686-0.843,1.816-1.718l0.747-5.774h1.491l2.562,3.244c2.011,2.53,5.026,4.507,13.718,4.507
	c2.724,0,4.67-0.227,5.935-0.355c1.135-0.131,1.687-0.908,1.783-1.72l0.324-2.399C52.823,19.68,52.467,18.999,51.364,19.096z
	 M29.765,12.286H27.56l0.714-5.449h1.913c1.718,0,3.016,0.747,3.016,2.367C33.202,11.313,31.646,12.286,29.765,12.286z
	 M91.311,21.954h-0.449c-0.234,0-0.322,0.138-0.348,0.31l-0.215,1.63c-0.019,0.152-0.006,0.209,0.164,0.209h0.24
	c0.158,0,0.195-0.057,0.215-0.215l0.063-0.468h0.075l0.14,0.48c0.044,0.146,0.082,0.202,0.271,0.202h0.246
	c0.14,0,0.14-0.083,0.102-0.215l-0.178-0.574c0.254-0.128,0.431-0.349,0.431-0.722C92.068,22.111,91.765,21.954,91.311,21.954z
	 M91.189,22.934h-0.145l0.057-0.437h0.119c0.158,0,0.247,0.062,0.247,0.184C91.468,22.852,91.342,22.934,91.189,22.934z
	 M91.373,21.163c-1.277,0-2.187,0.897-2.187,2.193c0,0.998,0.632,1.644,1.681,1.644c1.284,0,2.199-0.879,2.199-2.174
	C93.066,21.82,92.422,21.163,91.373,21.163z M90.938,24.475c-0.727,0-1.163-0.461-1.163-1.182c0-0.955,0.626-1.605,1.528-1.605
	c0.733,0,1.177,0.469,1.177,1.201C92.479,23.843,91.841,24.475,90.938,24.475z M54.088,1.259h-2.367
	c-1.037,0-1.687,0.649-1.784,1.524l-1.069,8.076c-0.227,1.751-0.779,2.659-1.881,2.659c-1.103,0-1.459-0.908-1.233-2.659
	l1.039-7.913c0.129-0.876-0.292-1.687-1.33-1.687h-2.367c-1.038,0-1.654,0.811-1.784,1.687l-1.006,7.588
	c-0.648,4.897,1.103,7.588,6.064,7.588c4.995,0,7.427-2.691,8.076-7.588l1.005-7.622C55.58,2.037,55.125,1.259,54.088,1.259z
	 M64.821,6.416c1.524,0,2.433,0.844,2.433,2.433c0,0.584,0.486,0.648,1.329,0.519l3.211-0.519c1.167-0.195,1.589-0.941,1.557-1.784
	C73.221,3.335,70.724,1,65.373,1c-6.357,0-9.309,4.378-9.309,8.172c0,7.394,9.567,5.675,9.567,8.431c0,0.877-0.39,2.012-2.53,2.012
	c-1.719,0-2.303-1.104-2.303-2.075c0-0.876-0.615-0.909-1.588-0.746l-2.983,0.486c-1.298,0.228-1.493,1.069-1.46,1.783
	c0.193,3.114,2.237,5.999,7.459,5.935c7.491-0.064,9.924-3.6,9.924-7.588c0-7.33-9.535-6.162-9.535-8.951
	C62.615,7.324,63.297,6.416,64.821,6.416z"/>
</svg>
