<?xml version="1.0" encoding="utf-8"?>
<!-- Generator: Adobe Illustrator 16.0.0, SVG Export Plug-In . SVG Version: 6.00 Build 0)  -->
<!DOCTYPE svg PUBLIC "-//W3C//DTD SVG 1.1//EN" "http://www.w3.org/Graphics/SVG/1.1/DTD/svg11.dtd">
<svg version="1.1" id="Layer_1" xmlns="http://www.w3.org/2000/svg" xmlns:xlink="http://www.w3.org/1999/xlink" x="0px" y="0px"
	 width="162px" height="130px" viewBox="0 0 162 130" enable-background="new 0 0 162 130" xml:space="preserve">
<g>
	<path d="M160.042,78.016c-1.61-8.125-5.072-15.243-9.62-20.673L134.021,1l-12.432,42.704c-13.097-2.389-24.674-2.338-24.674-2.338
		c-14.508,0.3-26.249,2.705-35.425,5.743H1l22.644,30.299c-0.719,2.214-1.107,4.482-1.107,6.781c0,9.863,6.41,21.557,15.851,28.139
		c9.802,6.834,25.553,8.43,38.166,8.465c5.738,4.662,16.244,7.789,28.256,7.789c12.119,0,22.702-3.182,28.407-7.916
		c2.146,0.227,4.317,0.145,6.484-0.285C154.974,117.352,164.082,98.382,160.042,78.016z"/>
	<path fill="#6181B6" d="M156.42,77.427c-1.825-9.586-6.475-18.118-12.752-23.413l-0.158-0.133l-0.082-0.087
		c-0.354-0.292-1.103-0.755-2.025-1.277c-2.426,5.389-7.518,7.7-7.518,7.7c-0.268-4.338-4.553-9.833-7.752-13.368
		c-2.115-0.482-4.221-0.888-6.269-1.231c0.684,12.26-6.845,21.249-6.845,21.249c-5.428-9.697-26.373-17.837-34.708-20.76
		c-3.304,0.688-6.364,1.492-9.184,2.371c4.419,7.475,3.02,15.522,3.02,15.522c-3.945-2.341-10.765-2.609-17.185-2.172
		c-4.443,7.938-6.957,16.944-6.957,26.494c0,8.508,2.005,16.576,5.575,23.851c6.874,2.352,15.851,3.578,26.548,3.578
		c11.97,0,23.236-4.834,30.911-13.266l3.064-3.369l2.503,3.837c5.219,8.014,12.605,12.797,19.762,12.797h0.002
		c1.113,0,2.229-0.113,3.319-0.34C152.405,112.783,159.909,95.744,156.42,77.427z M80.602,102.473
		c-1.349,0.268-2.858-0.523-3.374-1.771c-0.516-1.244,0.157-2.472,1.507-2.741c1.348-0.267,2.858,0.526,3.375,1.771
		C82.626,100.976,81.95,102.205,80.602,102.473z M79.057,74.912c0-1.271,0.385-2.453,1.047-3.436l11.17,2.222
		c0.077,0.393,0.119,0.798,0.119,1.214c0,3.406-2.759,6.169-6.168,6.169C81.819,81.081,79.057,78.318,79.057,74.912z
		 M90.875,111.715c-1.349,0.266-2.862-0.527-3.377-1.771c-0.518-1.248,0.159-2.473,1.508-2.742c1.347-0.266,2.858,0.523,3.374,1.771
		C92.896,110.217,92.222,111.443,90.875,111.715z M93.074,99.972c-1.348,0.268-2.859-0.525-3.374-1.771
		c-0.516-1.243,0.157-2.472,1.508-2.739c1.345-0.268,2.857,0.523,3.372,1.771C95.097,98.476,94.422,99.705,93.074,99.972z
		 M126.482,98.382c-1.078-0.213-1.617-1.193-1.207-2.192c0.414-0.993,1.624-1.628,2.702-1.413c1.079,0.213,1.617,1.194,1.204,2.191
		C128.77,97.964,127.561,98.597,126.482,98.382z M130.942,106.359c-0.413,0.998-1.62,1.633-2.698,1.418
		c-1.078-0.213-1.619-1.199-1.207-2.193c0.414-0.996,1.625-1.631,2.701-1.418C130.817,104.383,131.357,105.365,130.942,106.359z
		 M130.956,79.071c-2.554,0-4.626-2.072-4.626-4.625c0-0.312,0.031-0.618,0.092-0.913l8.376-1.665
		c0.494,0.736,0.785,1.623,0.785,2.578C135.583,76.999,133.511,79.071,130.956,79.071z M139.162,98.968
		c-0.415,0.997-1.623,1.631-2.702,1.415c-1.079-0.214-1.617-1.194-1.204-2.192c0.412-0.995,1.621-1.629,2.699-1.416
		C139.032,96.991,139.575,97.972,139.162,98.968z"/>
	<path fill="#4C3E8B" d="M111.861,106.359c-6.137,6.48-14.696,11.328-24.506,13.371c4.929,2.68,12.098,4.369,20.084,4.369
		c8.229,0,15.593-1.795,20.528-4.619C121.829,117.348,116.168,112.711,111.861,106.359z M41.768,63.575
		c-6.692,6.036-10.37,12.853-10.37,19.298c0,8.774,5.758,19.323,13.695,25.081c2.298,1.668,5.148,3.074,8.488,4.217
		c-3.57-7.275-5.575-15.343-5.575-23.851c0-9.55,2.514-18.556,6.957-26.494C49.69,62.184,44.688,63.019,41.768,63.575z"/>
	<path fill="#21236C" d="M121.799,88.968c-0.034-0.135-0.086-0.259-0.153-0.371c-0.328-0.721-1.444-0.801-2.796-0.897
		c-1.247-0.09-2.902-0.14-4.658-0.14c-1.754,0-3.409,0.05-4.655,0.14c-1.424,0.103-2.583,0.185-2.841,1.018
		c-0.026,0.06-0.045,0.123-0.059,0.188c-0.155,0.704,0.24,1.128,1.545,2.532c0.676,0.727,1.516,1.631,2.287,2.588
		c0.809,1.002,1.411,1.904,1.851,2.562c0.729,1.087,1.092,1.633,1.837,1.633c0.013,0,0.026,0,0.039,0c0.014,0,0.026,0,0.039,0
		c1.147,0,3.99-2.307,5.51-4.194C121.412,91.956,122.041,89.914,121.799,88.968z"/>
	<g>
		<path fill="#FFF576" d="M91.273,73.698c0.077,0.393,0.119,0.798,0.119,1.214c0,3.406-2.759,6.169-6.168,6.169
			c-3.405,0-6.168-2.763-6.168-6.169c0-1.271,0.385-2.453,1.047-3.436l-14.542-2.893c-0.943,2.169-1.47,4.561-1.47,7.076
			c0,9.801,7.947,17.751,17.75,17.751c9.802,0,17.749-7.95,17.749-17.751c0-0.104-0.005-0.205-0.007-0.309L91.273,73.698z"/>
		<path fill="#FFF576" d="M145.702,69.698l-10.904,2.17c0.494,0.736,0.785,1.623,0.785,2.578c0,2.553-2.072,4.625-4.627,4.625
			c-2.554,0-4.626-2.072-4.626-4.625c0-0.312,0.031-0.618,0.092-0.913l1.303-0.259l-7.539,1.499c0,0.077-0.005,0.154-0.005,0.232
			c0,7.353,5.96,13.313,13.313,13.313c7.352,0,13.312-5.961,13.312-13.313C146.807,73.119,146.41,71.325,145.702,69.698z"/>
	</g>
	<path fill="#FFFFFF" d="M86.661,72.781l-1.947-0.388c-1.176,0.237-2.059,1.275-2.059,2.519c0,1.42,1.149,2.571,2.569,2.571
		s2.57-1.151,2.57-2.571C87.795,74.025,87.347,73.243,86.661,72.781z M131.338,72.555l-1.457,0.29
		c-0.515,0.347-0.852,0.934-0.852,1.601c0,1.064,0.862,1.929,1.927,1.929c1.065,0,1.928-0.864,1.928-1.929
		C132.884,73.51,132.221,72.733,131.338,72.555z"/>
</g>
</svg>
