<?xml version="1.0" encoding="UTF-8" standalone="no"?><!DOCTYPE svg PUBLIC "-//W3C//DTD SVG 1.1//EN" "http://www.w3.org/Graphics/SVG/1.1/DTD/svg11.dtd"><svg width="100%" height="100%" viewBox="0 0 40 21" version="1.1" xmlns="http://www.w3.org/2000/svg" xmlns:xlink="http://www.w3.org/1999/xlink" xml:space="preserve" style="fill-rule:evenodd;clip-rule:evenodd;stroke-linejoin:round;stroke-miterlimit:1.41421;"><path d="M14.5,0.5l-5.334,0c-0.368,0 -0.666,0.299 -0.666,0.667l0,18.667c0,0.367 0.298,0.666 0.666,0.666l5.334,0c0.368,0 0.666,-0.299 0.666,-0.667l0,-18.666c0,-0.369 -0.298,-0.667 -0.666,-0.667" style="fill:#635da9;fill-rule:nonzero;"/><path d="M6.5,0.533c-3.369,0.335 -6,3.177 -6,6.634c0,0.011 0.001,0.022 0.001,0.033c0,0.011 -0.001,0.022 -0.001,0.033c0,3.457 2.631,6.299 6,6.634c0.368,0 0.666,-0.299 0.666,-0.667l0,-12c0,-0.368 -0.298,-0.667 -0.666,-0.667" style="fill:#635da9;fill-rule:nonzero;"/><path d="M30.499,0.5l-5.333,0c-0.368,0 -0.667,0.299 -0.667,0.667l0,18.667c0,0.367 0.299,0.666 0.667,0.666l5.333,0c0.369,0 0.667,-0.299 0.667,-0.667l0,-18.666c0,-0.369 -0.298,-0.667 -0.667,-0.667" style="fill:#635da9;fill-rule:nonzero;"/><path d="M39.166,7.167c0,-3.457 -2.631,-6.299 -6,-6.634c-0.368,0 -0.667,0.299 -0.667,0.667l0,12c0,0.368 0.299,0.667 0.667,0.667c3.369,-0.335 6,-3.177 6,-6.633c0,-0.012 0,-0.022 0,-0.034c0,-0.011 0,-0.022 0,-0.033" style="fill:#635da9;fill-rule:nonzero;"/><path d="M23.166,10.5l0,-4.932c0,-0.004 0,-0.008 0,-0.012c0,-0.554 -0.337,-1.029 -0.818,-1.23c-0.776,-0.318 -1.625,-0.492 -2.515,-0.492c-0.89,0 -1.739,0.174 -2.515,0.492c-0.481,0.201 -0.818,0.676 -0.818,1.23c0,0.004 0,0.008 0,0.012l0,9.864c0,0.004 0,0.008 0,0.012c0,0.553 0.337,1.028 0.818,1.23c0.776,0.317 1.625,0.492 2.515,0.493c0.89,-0.001 1.739,-0.176 2.515,-0.493c0.481,-0.202 0.818,-0.677 0.818,-1.23c0,-0.004 0,-0.008 0,-0.012l0,-4.932Z" style="fill:#635da9;fill-rule:nonzero;"/></svg>