<?xml version="1.0" encoding="utf-8"?>
<!-- Generator: Adobe Illustrator 24.1.0, SVG Export Plug-In . SVG Version: 6.00 Build 0)  -->
<svg version="1.1" id="GRAFICA" xmlns="http://www.w3.org/2000/svg" xmlns:xlink="http://www.w3.org/1999/xlink" x="0px" y="0px"
	 viewBox="0 0 510.24 311.81" style="enable-background:new 0 0 510.24 311.81;" xml:space="preserve">
<style type="text/css">
	.st0{fill:#6181B6;}
</style>
<g>
	<path class="st0" d="M333.11,29.04h-24.49c-7.76,0-12.61,4.61-13.58,11.15l-12.61,96.27c-1.94,16.25-7.52,27.16-21.1,27.16
		c-13.58,0-16.25-11.15-14.06-27.16l12.61-96.02c0.97-6.55-2.42-11.4-10.18-11.4H225.2c-8.97,0-12.61,5.82-13.58,12.37l-13.09,99.91
		c-5.34,40.01,5.09,65.23,56.98,65.23c51.89,0,69.35-25.22,74.69-65.23L343.3,41.4C344.27,34.86,340.87,29.04,333.11,29.04z"/>
	<path class="st0" d="M420.05,70.02c9.21,0,16,8.49,16,21.82c0,9.21,3.64,10.18,12.37,8.73l20.85-3.39
		c10.43-1.7,12.61-4.85,12.61-17.7c0-29.34-12.37-52.38-56.26-52.38c-57.47,0-81.96,40.01-81.96,112.27
		c0,46.56,19.16,67.17,58.44,67.17c51.89,0,68.14-30.55,72.26-64.26l2.43-18.43c0.73-6.55-2.91-11.4-10.43-11.4h-40.5
		c-9.21,0-12.61,5.58-13.58,13.09l-0.73,5.33c-0.97,7.52,3.39,11.4,10.43,11.4h8.25l-0.24,1.7c-1.94,13.82-8.24,19.64-22.31,19.64
		c-9.94,0-15.03-8.97-15.03-29.1C392.65,102.75,398.47,70.02,420.05,70.02z"/>
	<path class="st0" d="M117.93,29.04H77.68c-7.27,0-12.12,5.33-13.09,11.88L46.15,180.76h-3.36c-9.21,0-12.61,5.58-13.58,13.09
		l-0.73,5.33c-0.97,7.52,3.39,11.4,10.43,11.4h3.38l-7.96,60.76l-0.07,0.52c-0.08,0.62-0.11,1.22-0.12,1.81
		c-0.15,6.73,3.84,11.04,10.31,11.04h0.24h16.67h7.58c7.03,0,12.61-5.09,13.58-12.85l8.82-67.26h3.57
		c53.83,0,97.72-37.59,97.72-98.69C192.62,59.1,162.3,29.04,117.93,29.04z M99.26,163.13h-2.5l5.32-40.6l0.07-0.52
		c0.08-0.62,0.11-1.22,0.12-1.81c0-0.12,0-0.24,0-0.36l6.44-49.09h2.67c21.1,0,32.25,14.55,32.25,38.55
		C143.63,143.01,127.87,163.13,99.26,163.13z"/>
</g>
<g>
	<path d="M132.43,254.58c-0.78,5.26-2.18,13.55-2.74,14.67c-0.45,1.29-13.72,0.45-13.72,0c0-1.79,1.74-9.18,2.86-14.62
		c-0.62-2.74-5.94-20.66-5.77-21.34c0.22-0.84,12.15-4.14,12.54-3.81c0.22,0.17,0.95,7.45,1.79,12.6h0.34
		c3.3-5.1,6.44-12.6,6.78-12.6c0.39,0.06,12.1,2.97,12.1,3.81C146.6,233.97,134,252.23,132.43,254.58z"/>
	<path d="M167.43,253.52c0,8.85-6.44,16.63-16.35,16.63c-6.61,0-11.87-4.93-11.87-12.54c0-8.62,6.44-16.74,16.3-16.74
		C162.11,240.86,167.43,245.84,167.43,253.52z M153.99,251.95c-2.3,0-3.7,2.13-3.7,5.1c0,1.74,0.84,2.97,2.18,2.97
		c2.13,0,3.75-2.02,3.75-5.21C156.23,252.79,155.22,251.95,153.99,251.95z"/>
	<path d="M176.78,270.15c-5.21,0-8.12-3.75-8.12-9.02c0-4.48,2.74-16.41,3.64-19.6c0.11-0.5,11.87-0.56,11.87-0.45
		c-0.78,4.93-3.36,15.4-3.36,16.91c0,0.84,0.39,1.79,1.46,1.79c1.51,0,2.24-1.79,2.46-3.14c0.28-1.57,2.74-15.18,2.97-15.4
		c0.22-0.17,10.98-0.11,11.14,0.22c0.11,0-2.24,13.5-2.8,16.69c-0.17,0.9,0.22,1.12,0.78,1.12c0.22,0,0.73-0.11,1.06-0.17
		c0.22,0.28-0.9,9.07-1.96,9.86c-1.23,0.9-3.36,1.06-4.59,1.06c-3.98,0-5.43-1.9-6.16-3.47
		C183.78,268.08,181.03,270.15,176.78,270.15z"/>
	<path d="M219.89,253.96c-0.84-0.28-2.91-0.73-3.92-0.62c-2.13,0.06-2.41,1.46-2.86,3.64c-0.34,1.51-1.9,12.21-2.18,12.43
		c-0.22,0.17-12.21,0.34-12.38,0c-0.11-0.22,4.48-26.49,5.04-27.61c0.73-0.9,11.03-1.23,11.65-0.67c-0.11,1.12-0.62,3.36-0.73,3.81
		c1.79-3.53,5.6-4.42,8.96-3.53C224.65,241.76,221.12,252.51,219.89,253.96z"/>
	<path d="M249.63,258.16c3.64,0,6.05-2.18,7.11-2.97c1.4,1.06,4.42,8.29,4.37,10.47c-3.3,2.91-8.34,5.04-14.17,5.04
		c-11.31,0-16.58-8.01-16.58-17.3c0-14.9,9.74-23.86,23.13-23.86c7.22,0,11.14,2.46,12.6,3.75c-0.39,1.46-3.86,9.63-5.99,11.2
		c-1.74-1.23-4.26-2.52-7.28-2.52c-4.59,0-8.18,3.86-8.18,9.91C244.64,257.21,248.11,258.16,249.63,258.16z"/>
	<path d="M278.97,241.08c0.17,0.22-5.49,27.78-5.77,28.17c-0.28,0.39-11.03,0.22-11.09,0.06s4.48-27.61,4.93-28.22
		C267.54,240.41,278.8,240.86,278.97,241.08z M275.49,226.24c3.08,0,5.26,2.02,5.26,5.26c0,3.92-2.86,6.66-6.78,6.66
		c-3.02,0-5.21-1.62-5.21-5.15C268.77,229.77,270.79,226.24,275.49,226.24z"/>
	<path d="M291.79,258.11c-0.06,0.95,0.34,1.51,1.29,1.51c1.01,0,1.79-0.22,2.8-0.84c0.62-0.45,1.01,6.83,0.78,8.4
		c0,0-2.3,2.91-8.57,2.91c-6.38,0-8.79-4.7-8.18-11.37c0.11-1.12,1.68-8.51,1.68-8.51c0-0.06-2.02,0.17-2.18-0.22
		c-0.22-0.34,1.4-8.79,1.51-8.85c0.28-0.22,2.3-0.06,2.74-0.11c0.28-0.06,0.78-5.88,1.34-6.38s11.09-1.23,11.31-0.95
		s-1.4,7.56-1.29,7.56c0.5,0,4.03-0.22,4.14,0.06c0.22,0.5-1.34,8.74-1.34,8.74c-0.5,0.84-4.54-0.06-4.7,0.45
		C293.02,251.05,292.01,255.59,291.79,258.11z"/>
	<path d="M311.83,254.47c0.78-1.85,5.77-14.17,5.99-14.22c0.17-0.06,11.7,2.18,11.48,2.46c-1.18,3.53-22.12,39.7-22.01,39.37
		c-3.02,0.11-10.25-4.14-10.86-4.93c-0.11,0.17,6.72-9.91,6.66-10.64c-1.85-5.32-3.19-20.66-3.19-23.52
		c0-0.95,10.86-2.58,11.37-2.58c0.39,0,0.5,11.93,0.45,14.06H311.83z"/>
	<path d="M354,269.48c-0.11-0.45,1.18-5.94,2.24-12.66l-6.83-0.17c-0.9,5.43-1.57,10.42-2.13,12.94c-2.63,0.5-13.55,0.67-13.55,0.11
		c0-1.96,5.6-36.74,6.55-39.48c0.39-1.18,13.38-0.62,13.61-0.22c0.11,0.11-1.06,6.38-2.41,14.5c2.91-0.06,4.2,0,6.94,0.06
		c1.18-6.38,1.9-12.21,2.46-14.11c2.69-0.5,13.1-0.45,13.55-0.11c0.45,0.34-6.27,37.46-7,38.92C366.99,270.43,354,269.92,354,269.48
		z"/>
	<path d="M387.09,261.19c2.18,0,4.37-1.01,5.66-1.62c0.56,0.9,2.24,7.22,2.13,8.12c-1.74,1.46-5.88,2.58-9.46,2.58
		c-9.69,0-12.77-5.54-12.77-12.54c0-8.79,6.33-16.91,15.85-16.91c7.34,0,10.58,4.87,10.58,10.42c0,3.02-0.73,4.93-1.18,6.61
		c-2.91,0.39-12.04,0.39-14.56,0.34C382.89,259.73,383.9,261.19,387.09,261.19z M389.56,252.17c0.17-0.45,0.34-1.12,0.34-1.57
		c0.06-1.23-0.5-2.24-2.18-2.24c-1.74,0-3.14,1.4-3.64,3.92L389.56,252.17z"/>
	<path d="M419.51,253.96c-0.84-0.28-2.91-0.73-3.92-0.62c-2.13,0.06-2.41,1.46-2.86,3.64c-0.34,1.51-1.9,12.21-2.18,12.43
		c-0.22,0.17-12.21,0.34-12.38,0c-0.11-0.22,4.48-26.49,5.04-27.61c0.73-0.9,11.03-1.23,11.65-0.67c-0.11,1.12-0.62,3.36-0.73,3.81
		c1.79-3.53,5.6-4.42,8.96-3.53C424.27,241.76,420.74,252.51,419.51,253.96z"/>
	<path d="M435.81,261.19c2.18,0,4.37-1.01,5.66-1.62c0.56,0.9,2.24,7.22,2.13,8.12c-1.74,1.46-5.88,2.58-9.46,2.58
		c-9.69,0-12.77-5.54-12.77-12.54c0-8.79,6.33-16.91,15.85-16.91c7.34,0,10.58,4.87,10.58,10.42c0,3.02-0.73,4.93-1.18,6.61
		c-2.91,0.39-12.04,0.39-14.56,0.34C431.61,259.73,432.61,261.19,435.81,261.19z M438.27,252.17c0.17-0.45,0.34-1.12,0.34-1.57
		c0.06-1.23-0.5-2.24-2.18-2.24c-1.74,0-3.14,1.4-3.64,3.92L438.27,252.17z"/>
</g>
</svg>
