<?xml version="1.0" encoding="utf-8"?>
<!-- Generator: Adobe Illustrator 16.0.3, SVG Export Plug-In . SVG Version: 6.00 Build 0)  -->
<!DOCTYPE svg PUBLIC "-//W3C//DTD SVG 1.1//EN" "http://www.w3.org/Graphics/SVG/1.1/DTD/svg11.dtd">
<svg version="1.1" id="Layer_1" xmlns="http://www.w3.org/2000/svg" xmlns:xlink="http://www.w3.org/1999/xlink" x="0px" y="0px"
	 width="375px" height="235.9px" viewBox="0 0 375 235.9" style="enable-background:new 0 0 375 235.9;" xml:space="preserve">
<style type="text/css">
<![CDATA[
	.st0{fill:#6282B7;}
	.st1{fill:#010101;}
]]>
</style>
<path class="st0" d="M246.4,22.5h-18.4c-5.8,0-9.5,3.5-10.2,8.4l-9.5,72.2c-1.5,12.2-5.6,20.4-15.8,20.4c-10.2,0-12.2-8.4-10.5-20.4
	l9.5-72c0.7-4.9-1.8-8.5-7.6-8.5h-18.4c-6.7,0-9.5,4.4-10.2,9.3l-9.8,74.9c-4,30,3.8,48.9,42.7,48.9c38.9,0,52-18.9,56-48.9
	l9.8-74.9C254.8,26.8,252.3,22.5,246.4,22.5 M311.7,53.2c6.9,0,12,6.4,12,16.4c0,6.9,2.7,7.6,9.3,6.5l15.6-2.5
	c7.8-1.3,9.5-3.6,9.5-13.3c0-22-9.3-39.3-42.2-39.3c-43.1,0-61.5,30-61.5,84.2c0,34.9,14.4,50.4,43.8,50.4
	c38.9,0,51.1-22.9,54.2-48.2l1.8-13.8c0.5-4.9-2.2-8.5-7.8-8.5H316c-6.9,0-9.5,4.2-10.2,9.8l-0.5,4c-0.7,5.6,2.5,8.5,7.8,8.5h6.2
	l-0.2,1.3c-1.5,10.4-6.2,14.7-16.7,14.7c-7.5,0-11.3-6.7-11.3-21.8C291.1,77.8,295.5,53.2,311.7,53.2 M85,22.5H54.9
	c-5.5,0-9.1,4-9.8,8.9L31.2,136.3h-2.5c-6.9,0-9.5,4.2-10.2,9.8l-0.5,4c-0.7,5.6,2.5,8.5,7.8,8.5h2.5l-6,45.6l-0.1,0.4
	c-0.1,0.5-0.1,0.9-0.1,1.4c-0.1,5,2.9,8.3,7.7,8.3h18.4c5.3,0,9.5-3.8,10.2-9.6l6.6-50.5h2.7c40.4,0,73.3-28.2,73.3-74
	C141.1,45,118.3,22.5,85,22.5 M71,123.1h-1.9l4-30.5l0.1-0.4c0.1-0.5,0.1-0.9,0.1-1.4c0-0.1,0-0.2,0-0.3l4.8-36.8h2
	c15.8,0,24.2,10.9,24.2,28.9C104.3,108,92.5,123.1,71,123.1"/>
<path class="st1" d="M192.2,202.8c-0.2,0,4-26.8,4.7-29.4c1.8-0.3,20.3-0.4,20.2-0.1c0,1.1-1.5,8.4-1.8,8.5c-1.1,0.3-6.7,0.1-10.1,0
	l-0.7,4.8c4.4,0,7.9,0.1,8.1,0.3c0,0-0.8,7.4-1.3,7.4c-2,0.4-3.6,0.3-8,0.2c-0.7,4.1-1.3,7.4-1.4,7.9
	C202.1,202.9,192.1,203.2,192.2,202.8"/>
<path class="st1" d="M228.1,181.5c0.1,0.2-4.1,20.8-4.3,21.1c-0.2,0.3-8.3,0.2-8.3,0c0-0.1,3.4-20.7,3.7-21.2
	C219.5,181,228,181.4,228.1,181.5 M225.5,170.4c2.3,0,3.9,1.5,3.9,3.9c0,2.9-2.1,5-5.1,5c-2.3,0-3.9-1.2-3.9-3.9
	C220.4,173,222,170.4,225.5,170.4"/>
<path class="st1" d="M244.3,191.2c-0.6-0.2-2.2-0.5-2.9-0.5c-1.6,0-1.8,1.1-2.1,2.7c-0.3,1.1-1.4,9.2-1.6,9.3
	c-0.2,0.1-9.2,0.3-9.3,0c-0.1-0.2,3.4-19.9,3.8-20.7c0.5-0.7,8.3-0.9,8.7-0.5c-0.1,0.8-0.5,2.5-0.5,2.9c1.3-2.6,4.2-3.3,6.7-2.6
	C247.9,182,245.3,190.1,244.3,191.2"/>
<path class="st1" d="M258,196.6c1.6,0,3.3-0.8,4.2-1.2c0.4,0.7,1.7,5.4,1.6,6.1c-1.3,1.1-4.4,1.9-7.1,1.9c-7.3,0-9.6-4.2-9.6-9.4
	c0-6.6,4.7-12.7,11.9-12.7c5.5,0,7.9,3.7,7.9,7.8c0,2.3-0.5,3.7-0.9,5c-2.2,0.3-9,0.3-10.9,0.3C254.9,195.5,255.6,196.6,258,196.6
	 M259.9,189.8c0.1-0.3,0.3-0.8,0.3-1.2c0-0.9-0.4-1.7-1.6-1.7c-1.3,0-2.4,1-2.7,2.9L259.9,189.8z"/>
<path class="st1" d="M279.8,183.8c1.1-1.3,2.8-2.6,5.6-2.6c3.9,0,5.1,2.6,5.1,5.2c0,2.2-0.7,6.8-0.8,8.1c-0.1,0.7,0.1,0.8,0.5,0.8
	c0.2,0,0.5-0.1,0.8-0.1c0.2,0.2-0.7,6.8-1.4,7.4c-1,0.7-2.4,0.8-3.6,0.8c-4.2,0-5.8-2.6-5.4-6.3c0.2-1.7,0.9-5.5,1.1-6.3
	c0.1-1.1-0.2-1.8-1.1-1.8c-1.3,0-1.8,1.3-2,2.5c-0.2,1-2.1,11.4-2.2,11.6c-0.2,0.2-8.2,0.1-8.3-0.2c-0.1-0.2,1.6-11.6,3.3-20.7
	c0.6-0.7,8.4-0.9,8.8-0.5L279.8,183.8L279.8,183.8z"/>
<path class="st1" d="M311.8,181.3c0.2,0-0.4,5.6-0.6,6.1c0,0.1-7.4,8.6-7.3,8.7c0.4-0.1,5.3-0.5,5.5,0c0.1,0.2-1.2,6.8-1.4,6.9
	c-0.2,0.2-15.1,0-15.3-0.1c-0.2,0,0-4.7,0.6-6.2c0-0.1,7.3-8.2,7.3-8.2s-5.3,0.7-5.8-0.1c-0.4-0.5,1-6.7,1.4-6.8
	C296.7,181.5,311.7,181.2,311.8,181.3"/>
<path class="st1" d="M323.5,196.6c1.6,0,3.3-0.8,4.2-1.2c0.4,0.7,1.7,5.4,1.6,6.1c-1.3,1.1-4.4,1.9-7.1,1.9c-7.3,0-9.6-4.2-9.6-9.4
	c0-6.6,4.7-12.7,11.9-12.7c5.5,0,7.9,3.7,7.9,7.8c0,2.3-0.5,3.7-0.9,5c-2.2,0.3-9,0.3-10.9,0.3C320.3,195.5,321.1,196.6,323.5,196.6
	 M325.3,189.8c0.1-0.3,0.3-0.8,0.3-1.2c0-0.9-0.4-1.7-1.6-1.7c-1.3,0-2.4,1-2.7,2.9L325.3,189.8z"/>
</svg>
