<?xml version="1.0" encoding="utf-8"?>
<!-- Generator: Adobe Illustrator 16.0.3, SVG Export Plug-In . SVG Version: 6.00 Build 0)  -->
<!DOCTYPE svg PUBLIC "-//W3C//DTD SVG 1.1//EN" "http://www.w3.org/Graphics/SVG/1.1/DTD/svg11.dtd">
<svg version="1.1" id="Layer_1" xmlns="http://www.w3.org/2000/svg" xmlns:xlink="http://www.w3.org/1999/xlink" x="0px" y="0px"
	 width="375px" height="235.9px" viewBox="0 0 375 235.9" style="enable-background:new 0 0 375 235.9;" xml:space="preserve">
<style type="text/css">
<![CDATA[
	.st0{fill:#6282B7;}
	.st1{fill:#010101;}
]]>
</style>
<path class="st1" d="M179.1,205.9c0-1.4,4.9-28.4,5.2-28.7c0.7-0.7,6.5-1,9.1-1c7.9,0,11.9,3.4,11.9,9.9c0,7.2-4.3,12.2-13,12.2
	h-1.1c-0.8,4.3-1.2,7.1-1.6,7.4C189.4,206,179.1,206.2,179.1,205.9 M193.3,190.2c1.5,0,2.7-1.2,2.7-3.2c0-1.3-0.7-2-2-2
	c-0.1,0-0.5,0-0.7,0.1c-0.3,1.2-0.7,3.7-1,5C192.6,190.1,193,190.2,193.3,190.2"/>
<path class="st1" d="M216.7,199.6c1.6,0,3.3-0.8,4.2-1.2c0.4,0.7,1.7,5.4,1.6,6.1c-1.3,1.1-4.4,1.9-7.1,1.9c-7.3,0-9.6-4.2-9.6-9.4
	c0-6.6,4.7-12.7,11.9-12.7c5.5,0,7.9,3.7,7.9,7.8c0,2.3-0.5,3.7-0.9,5c-2.2,0.3-9,0.3-10.9,0.3C213.5,198.5,214.3,199.6,216.7,199.6
	 M218.5,192.8c0.1-0.3,0.3-0.8,0.3-1.2c0-0.9-0.4-1.7-1.6-1.7c-1.3,0-2.4,1-2.7,2.9L218.5,192.8z"/>
<path class="st1" d="M225.9,204.4c-0.3-0.5,2.6-6.4,2.9-6.3c0.6,0.2,2.9,2.1,5.2,2.1c0.5,0,0.8-0.3,0.8-0.7c0-0.4-0.2-0.9-1.8-1.4
	c-3.3-1-4.9-3.1-4.9-5.8c0-5.5,3.4-8.2,9.6-8.2c3.5,0,7.3,1.5,7.5,1.8c0.3,0.5-2.9,6.5-3.2,6.2c-0.5-0.4-2.8-1.5-4.3-1.5
	c-0.6,0-0.9,0.4-0.9,0.8c0,0.3,0.3,0.8,1.3,1c3.9,1.2,5.7,2.8,5.7,5.9c0,4.5-2.8,8.1-9.8,8.1C230,206.5,226.2,204.9,225.9,204.4"/>
<path class="st1" d="M257.2,198.8c1.3,0,2.8-0.7,3.9-1.3c0.5-0.3,2.3,4.5,2.6,5.8c-1.5,1.5-5,3.2-8.4,3.2c-6.5,0-9-4.8-9-9.6
	c0-7.3,5.7-12.5,12.9-12.5c4.1,0,6.7,1.7,6.7,2.1c0,0.5-2.6,7.3-3.4,7.3c-0.4,0-1.8-1.8-3.9-1.8c-2.5,0-3.7,2.5-3.7,4.5
	C254.9,198.5,256.2,198.8,257.2,198.8"/>
<path class="st1" d="M273.5,205.8c-4.5,0-7.2-3.8-7.2-8.9c0-8.8,5-12.4,9.2-12.4c2.9,0,4.7,1.8,5,2.4c0-0.5,0.3-1.6,0.4-2
	c0.2-0.6,7.2-0.7,8.2-0.1c0.1,0-1.1,6.3-2.1,12.3c-0.1,0.7,0.1,0.8,0.5,0.8c0.2,0,0.6-0.1,0.8-0.1c0.1,0.2-0.7,6.8-1.5,7.4
	c-1,0.7-2.4,0.8-3.6,0.8c-2.6,0-3.6-1.3-4.3-2.6C277.7,204.7,276.1,205.8,273.5,205.8 M276.5,197.9c1.1,0,2.2-1.6,2.2-3.7
	c0-1.3-0.5-1.8-1.5-1.8c-1.5,0-2.2,2.1-2.2,3.9C275,197,275.5,197.9,276.5,197.9"/>
<path class="st1" d="M306.3,194.2c-0.6-0.2-2.2-0.5-2.9-0.5c-1.6,0-1.8,1.1-2.1,2.7c-0.3,1.1-1.4,9.2-1.6,9.3
	c-0.2,0.1-9.2,0.3-9.3,0c-0.1-0.2,3.4-19.9,3.8-20.7c0.5-0.7,8.3-0.9,8.7-0.5c-0.1,0.8-0.5,2.5-0.5,2.9c1.3-2.6,4.2-3.3,6.7-2.6
	C309.8,185,307.2,193.1,306.3,194.2"/>
<path class="st1" d="M316.5,205.8c-4.5,0-7.2-3.8-7.2-8.9c0-8.8,5-12.4,9.2-12.4c2.9,0,4.7,1.8,5,2.4c0-0.5,0.3-1.6,0.4-2
	c0.2-0.6,7.2-0.7,8.2-0.1c0.1,0-1.1,6.3-2.1,12.3c-0.1,0.7,0.1,0.8,0.5,0.8c0.2,0,0.6-0.1,0.8-0.1c0.1,0.2-0.7,6.8-1.5,7.4
	c-1,0.7-2.4,0.8-3.6,0.8c-2.6,0-3.6-1.3-4.3-2.6C320.7,204.7,319.1,205.8,316.5,205.8 M319.5,197.9c1.1,0,2.2-1.6,2.2-3.7
	c0-1.3-0.5-1.8-1.5-1.8c-1.5,0-2.2,2.1-2.2,3.9C318,197,318.5,197.9,319.5,197.9"/>
<path class="st0" d="M246.4,25.5h-18.4c-5.8,0-9.5,3.5-10.2,8.4l-9.5,72.2c-1.5,12.2-5.6,20.4-15.8,20.4c-10.2,0-12.2-8.4-10.5-20.4
	l9.5-72c0.7-4.9-1.8-8.5-7.6-8.5h-18.4c-6.7,0-9.5,4.4-10.2,9.3l-9.8,74.9c-4,30,3.8,48.9,42.7,48.9c38.9,0,52-18.9,56-48.9
	l9.8-74.9C254.8,29.8,252.3,25.5,246.4,25.5 M311.7,56.2c6.9,0,12,6.4,12,16.4c0,6.9,2.7,7.6,9.3,6.5l15.6-2.5
	c7.8-1.3,9.5-3.6,9.5-13.3c0-22-9.3-39.3-42.2-39.3c-43.1,0-61.5,30-61.5,84.2c0,34.9,14.4,50.4,43.8,50.4
	c38.9,0,51.1-22.9,54.2-48.2l1.8-13.8c0.5-4.9-2.2-8.5-7.8-8.5H316c-6.9,0-9.5,4.2-10.2,9.8l-0.5,4c-0.7,5.6,2.5,8.5,7.8,8.5h6.2
	l-0.2,1.3c-1.5,10.4-6.2,14.7-16.7,14.7c-7.5,0-11.3-6.7-11.3-21.8C291.1,80.8,295.5,56.2,311.7,56.2 M85,25.5H54.9
	c-5.5,0-9.1,4-9.8,8.9L31.2,139.3h-2.5c-6.9,0-9.5,4.2-10.2,9.8l-0.5,4c-0.7,5.6,2.5,8.5,7.8,8.5h2.5l-6,45.6l-0.1,0.4
	c-0.1,0.5-0.1,0.9-0.1,1.4c-0.1,5,2.9,8.3,7.7,8.3h18.4c5.3,0,9.5-3.8,10.2-9.6l6.6-50.5h2.7c40.4,0,73.3-28.2,73.3-74
	C141.1,48,118.3,25.5,85,25.5 M71,126.1h-1.9l4-30.5l0.1-0.4c0.1-0.5,0.1-0.9,0.1-1.4c0-0.1,0-0.2,0-0.3l4.8-36.8h2
	c15.8,0,24.2,10.9,24.2,28.9C104.3,111,92.5,126.1,71,126.1"/>
</svg>
