<?xml version="1.0" encoding="utf-8"?>
<!-- Generator: Adobe Illustrator 16.0.3, SVG Export Plug-In . SVG Version: 6.00 Build 0)  -->
<!DOCTYPE svg PUBLIC "-//W3C//DTD SVG 1.1//EN" "http://www.w3.org/Graphics/SVG/1.1/DTD/svg11.dtd">
<svg version="1.1" id="Layer_1" xmlns="http://www.w3.org/2000/svg" xmlns:xlink="http://www.w3.org/1999/xlink" x="0px" y="0px"
	 width="375px" height="235.9px" viewBox="0 0 375 235.9" style="enable-background:new 0 0 375 235.9;" xml:space="preserve">
<style type="text/css">
<![CDATA[
	.st0{fill:#6282B7;}
	.st1{fill:#010101;}
]]>
</style>
<path class="st1" d="M213.9,177.7c0-0.3,20.9-0.9,21.5-0.5c0.7,0.1-0.9,8.4-1.2,8.5c-0.6,0.1-2.6,0.3-5.6,0.4
	c-1.5,8.7-3.6,20.6-3.8,20.3c-0.2,0.3-9.8,0.5-9.8,0.3c0-1,1.9-12.1,3.5-20.7c-3.2,0.1-5.4,0.2-5.5-0.3
	C212.3,184.3,213.7,178.1,213.9,177.7"/>
<path class="st1" d="M253.5,194.9c0,6.6-4.8,12.5-12.3,12.5c-5,0-8.9-3.7-8.9-9.4c0-6.5,4.8-12.6,12.2-12.6
	C249.5,185.4,253.5,189.1,253.5,194.9 M243.4,193.7c-1.7,0-2.8,1.6-2.8,3.8c0,1.3,0.6,2.2,1.6,2.2c1.6,0,2.8-1.5,2.8-3.9
	C245.1,194.3,244.3,193.7,243.4,193.7"/>
<path class="st1" d="M270.8,195.2c-0.6-0.2-2.2-0.5-2.9-0.5c-1.6,0-1.8,1.1-2.1,2.7c-0.3,1.1-1.4,9.2-1.6,9.3
	c-0.2,0.1-9.2,0.3-9.3,0c-0.1-0.2,3.4-19.9,3.8-20.7c0.5-0.7,8.3-0.9,8.7-0.5c-0.1,0.8-0.5,2.5-0.5,2.9c1.3-2.6,4.2-3.3,6.7-2.6
	C274.4,186.1,271.8,194.1,270.8,195.2"/>
<path class="st1" d="M285.7,185.6c0.1,0.2-4.1,20.8-4.3,21.1c-0.2,0.3-8.3,0.2-8.3,0c0-0.1,3.4-20.7,3.7-21.2
	C277.1,185.1,285.6,185.4,285.7,185.6 M283.1,174.4c2.3,0,3.9,1.5,3.9,3.9c0,2.9-2.1,5-5.1,5c-2.3,0-3.9-1.2-3.9-3.9
	C278.1,177.1,279.6,174.4,283.1,174.4"/>
<path class="st1" d="M298,187.8c1.1-1.3,2.8-2.6,5.6-2.6c3.9,0,5.1,2.6,5.1,5.2c0,2.2-0.7,6.8-0.8,8.1c-0.1,0.7,0.1,0.8,0.5,0.8
	c0.2,0,0.5-0.1,0.8-0.1c0.2,0.2-0.7,6.8-1.4,7.4c-1,0.7-2.4,0.8-3.6,0.8c-4.2,0-5.8-2.6-5.4-6.3c0.2-1.7,0.9-5.5,1-6.3
	c0.1-1.1-0.2-1.8-1.1-1.8c-1.3,0-1.8,1.3-2,2.5c-0.2,1-2.1,11.4-2.2,11.6c-0.2,0.2-8.2,0.1-8.3-0.2c-0.1-0.2,1.6-11.6,3.3-20.7
	c0.6-0.7,8.4-0.9,8.8-0.5L298,187.8L298,187.8z"/>
<path class="st1" d="M332.9,194.9c0,6.6-4.8,12.5-12.3,12.5c-5,0-8.9-3.7-8.9-9.4c0-6.5,4.8-12.6,12.2-12.6
	C328.9,185.4,332.9,189.1,332.9,194.9 M322.8,193.7c-1.7,0-2.8,1.6-2.8,3.8c0,1.3,0.6,2.2,1.6,2.2c1.6,0,2.8-1.5,2.8-3.9
	C324.5,194.3,323.7,193.7,322.8,193.7"/>
<path class="st0" d="M247.4,26.5H229c-5.8,0-9.5,3.5-10.2,8.4l-9.5,72.2c-1.5,12.2-5.6,20.4-15.8,20.4c-10.2,0-12.2-8.4-10.5-20.4
	l9.5-72c0.7-4.9-1.8-8.5-7.6-8.5h-18.4c-6.7,0-9.5,4.4-10.2,9.3l-9.8,74.9c-4,30,3.8,48.9,42.7,48.9c38.9,0,52-18.9,56-48.9
	l9.8-74.9C255.8,30.9,253.2,26.5,247.4,26.5"/>
<path class="st0" d="M312.6,57.3c6.9,0,12,6.4,12,16.4c0,6.9,2.7,7.6,9.3,6.5l15.6-2.5c7.8-1.3,9.5-3.6,9.5-13.3
	c0-22-9.3-39.3-42.2-39.3c-43.1,0-61.5,30-61.5,84.2c0,34.9,14.4,50.4,43.8,50.4c38.9,0,51.1-22.9,54.2-48.2l1.8-13.8
	c0.5-4.9-2.2-8.5-7.8-8.5H317c-6.9,0-9.5,4.2-10.2,9.8l-0.5,4c-0.7,5.6,2.5,8.5,7.8,8.5h6.2l-0.2,1.3c-1.5,10.4-6.2,14.7-16.7,14.7
	c-7.5,0-11.3-6.7-11.3-21.8C292.1,81.8,296.4,57.3,312.6,57.3"/>
<path class="st0" d="M86,26.5H55.8c-5.5,0-9.1,4-9.8,8.9L31.1,148.6c-0.1,0.4-0.1,0.7-0.1,1.1l-7.7,58.6l-0.1,0.4
	c-0.1,0.5-0.1,0.9-0.1,1.4c-0.1,5,2.9,8.3,7.7,8.3h0.2h12.5h5.7c5.3,0,9.5-3.8,10.2-9.6l6.6-50.5h2.7c40.4,0,73.3-28.2,73.3-74
	C142,49.1,119.3,26.5,86,26.5 M72,127.1h-1.9l4-30.5l0.1-0.4c0.1-0.5,0.1-0.9,0.1-1.4c0-0.1,0-0.2,0-0.3l4.8-36.8h2
	c15.8,0,24.2,10.9,24.2,28.9C105.3,112,93.5,127.1,72,127.1"/>
<path class="st0" d="M62,162.7l5.8-13.8c0.5-4.9-2.2-8.5-7.8-8.5H29.6c-6.9,0-9.5,4.2-10.2,9.8l-0.5,4c-0.7,5.6,2.5,8.5,7.8,8.5h6.2
	H62z"/>
</svg>
